<?xml version="1.0" standalone="no"?>
<!DOCTYPE svg PUBLIC "-//W3C//DTD SVG 20010904//EN"
 "http://www.w3.org/TR/2001/REC-SVG-20010904/DTD/svg10.dtd">
<svg version="1.0" xmlns="http://www.w3.org/2000/svg"
 width="256.000000pt" height="256.000000pt" viewBox="0 0 256.000000 256.000000"
 preserveAspectRatio="xMidYMid meet">
<metadata>
Created by potrace 1.11, written by Peter Selinger 2001-2013
</metadata>
<g transform="translate(0.000000,256.000000) scale(0.100000,-0.100000)"
fill="#000000" stroke="none">
<path d="M1244 2026 c-13 -10 -16 -22 -12 -54 4 -30 3 -39 -7 -36 -6 3 -20 -6
-29 -20 -11 -18 -25 -26 -46 -26 -35 0 -35 0 -15 47 19 45 19 43 -6 43 -15 0
-19 5 -15 15 4 10 -2 19 -18 25 -32 12 -63 2 -69 -21 -3 -13 -11 -17 -21 -13
-26 10 -18 -15 20 -62 43 -52 38 -65 -31 -85 -25 -7 -45 -17 -45 -21 0 -4 -4
-8 -8 -8 -9 0 -42 70 -42 88 0 17 -82 6 -97 -14 -6 -9 -9 -22 -6 -30 3 -8 0
-14 -6 -14 -6 0 -11 -7 -11 -15 0 -8 7 -15 15 -15 16 0 19 -9 9 -34 -9 -22
-24 -20 -24 3 0 25 -18 37 -33 22 -6 -6 -19 -11 -29 -11 -21 0 -34 -25 -33
-65 0 -24 5 -31 25 -33 74 -8 87 -23 51 -56 -11 -10 -22 -28 -25 -42 -4 -13
-10 -23 -14 -22 -4 1 -18 -2 -31 -6 -20 -7 -29 -3 -48 19 l-24 27 -29 -32
c-21 -24 -28 -40 -24 -55 3 -13 1 -26 -5 -29 -6 -4 -11 -15 -11 -26 0 -10 -7
-20 -15 -24 -16 -6 -21 -41 -6 -50 5 -3 7 -15 4 -26 -6 -23 10 -26 51 -10 21
7 26 6 26 -5 0 -18 21 -19 39 -2 11 10 12 7 6 -18 -4 -16 -8 -50 -9 -75 l-1
-45 -52 1 c-51 1 -58 -3 -54 -33 1 -6 -3 -14 -9 -18 -15 -9 -12 -45 5 -51 22
-9 44 -59 34 -77 -12 -20 -2 -45 22 -52 10 -4 19 -11 19 -16 0 -16 29 -10 39
9 6 9 11 11 11 5 0 -19 31 -16 46 4 11 16 13 16 25 -10 7 -15 17 -27 22 -27 6
0 7 -3 4 -7 -4 -3 0 -17 9 -31 20 -30 10 -38 -53 -48 -43 -6 -53 -20 -31 -42
7 -7 9 -12 5 -12 -4 0 -3 -9 3 -20 6 -11 19 -20 29 -20 11 0 21 -10 25 -23 6
-21 7 -21 24 8 13 24 23 29 45 27 38 -5 34 -18 -8 -26 -25 -5 -35 -12 -35 -26
0 -12 -6 -17 -17 -16 -10 2 -21 -2 -25 -8 -6 -8 -11 -7 -17 3 -6 9 -11 10 -15
2 -4 -6 -3 -11 3 -11 6 0 8 -7 5 -15 -5 -12 -10 -13 -20 -4 -10 8 -14 8 -14 0
0 -6 5 -11 12 -11 9 0 9 -3 0 -12 -7 -7 -12 -17 -12 -23 0 -5 5 -2 11 8 5 9
15 17 20 17 6 0 8 -4 5 -9 -3 -5 1 -14 9 -21 11 -9 12 -15 2 -25 -9 -9 -14
-10 -19 -1 -6 8 -8 8 -8 -1 0 -16 17 -26 25 -13 4 6 11 7 17 4 7 -4 8 -2 4 4
-4 7 -2 12 3 12 6 0 11 -4 11 -8 0 -5 7 -9 15 -9 8 0 11 5 8 10 -4 7 1 8 13 3
10 -4 24 -9 29 -10 6 -1 15 -4 20 -7 6 -4 18 -5 28 -4 10 2 16 -2 14 -8 -2 -7
-14 -11 -26 -11 -12 1 -19 -1 -16 -5 4 -3 10 -6 13 -6 4 0 13 -4 20 -9 7 -4
16 -5 19 -2 4 3 1 6 -6 6 -7 0 -9 5 -6 10 4 6 11 8 16 5 5 -4 6 2 2 12 -6 16
-5 17 12 3 10 -9 39 -15 68 -15 40 0 51 -3 53 -18 2 -13 -2 -16 -17 -12 -10 4
-19 2 -19 -3 0 -13 66 -8 83 6 8 7 17 9 21 5 3 -4 16 -7 27 -8 17 -1 20 3 16
21 -2 14 0 21 6 17 5 -3 6 3 2 16 -4 15 -2 20 7 18 7 -2 10 -2 5 0 -4 3 1 12
11 21 9 10 13 14 8 9 -16 -11 -24 -8 -22 8 3 18 16 33 16 18 0 -6 11 -10 25
-8 14 1 28 -2 32 -8 3 -6 1 -7 -5 -3 -7 4 -12 2 -12 -4 0 -6 -4 -8 -10 -5 -5
3 -11 1 -11 -4 -1 -6 -2 -16 -3 -21 0 -6 -8 -15 -16 -20 -8 -5 -11 -10 -7 -10
4 0 3 -10 -3 -22 -11 -22 -10 -22 4 -4 13 15 16 16 21 5 3 -8 17 -16 31 -17
17 -1 23 2 18 11 -4 7 -3 8 2 4 12 -11 11 -40 -1 -50 -6 -5 -4 -7 5 -4 8 2 14
9 13 14 -1 5 4 10 12 10 8 0 12 -4 9 -9 -8 -12 10 -10 24 4 9 9 12 9 12 0 0
-19 16 -14 17 6 3 59 7 71 21 60 10 -9 11 -13 0 -19 -10 -6 -10 -11 -1 -20 14
-14 36 -2 30 15 -4 9 7 12 33 12 21 0 36 -4 34 -8 -3 -5 -10 -5 -16 -2 -6 4
-6 0 1 -13 6 -11 9 -22 6 -24 -2 -2 14 -4 35 -4 21 0 36 3 33 8 -2 4 5 7 16 7
12 0 20 3 20 8 -3 19 2 30 14 28 13 -1 17 5 17 30 0 8 -4 13 -9 9 -5 -3 -18 7
-29 22 -22 32 -34 64 -24 61 4 -1 21 6 39 15 39 21 40 21 40 2 0 -11 -7 -14
-21 -9 -15 4 -17 3 -8 -4 11 -7 10 -10 -3 -16 -9 -3 -20 -4 -24 -1 -4 2 -8 -2
-8 -10 0 -10 5 -11 17 -5 17 9 30 4 30 -11 0 -4 -9 -6 -19 -4 -14 3 -18 -1
-14 -12 4 -10 8 -11 13 -3 5 8 9 7 14 -5 8 -23 28 -8 21 16 -5 14 -2 17 9 13
8 -3 12 -13 9 -22 -4 -15 -3 -15 6 -2 6 8 11 13 12 10 0 -3 3 -18 5 -35 5 -29
4 -29 -10 -10 -12 17 -17 18 -28 6 -11 -11 -11 -14 0 -18 10 -4 10 -8 1 -19
-10 -12 -9 -13 5 -8 9 4 16 1 16 -6 0 -7 6 -10 14 -7 7 3 18 1 24 -5 10 -10
10 -5 3 31 -1 2 -7 -2 -14 -8 -14 -11 -27 -5 -27 11 0 5 5 6 10 3 6 -3 13 1
16 10 6 13 8 14 15 3 6 -9 9 -9 9 -1 0 7 -7 16 -16 21 -11 6 -13 12 -6 16 6 4
19 -5 28 -19 9 -14 19 -23 22 -20 3 2 11 0 18 -6 15 -12 34 -4 33 14 0 9 -2 9
-6 0 -2 -7 -8 -13 -13 -13 -5 0 -7 6 -6 13 3 21 17 38 27 32 5 -4 9 -2 9 4 0
5 -9 9 -19 8 -11 0 -17 -5 -15 -9 3 -4 0 -8 -5 -8 -6 0 -11 6 -11 13 0 8 -3 8
-8 2 -8 -12 -27 -13 -38 -2 -4 4 2 7 13 7 12 0 24 6 26 13 4 8 6 9 6 0 1 -7
11 -10 29 -6 36 7 56 11 62 13 3 1 9 2 13 1 5 -1 6 3 3 8 -4 5 -15 8 -26 6
-23 -4 -27 14 -7 34 10 10 8 15 -6 26 -13 9 -17 20 -12 34 8 26 25 27 25 2 0
-25 18 -37 33 -22 6 6 19 11 29 11 21 0 34 25 33 65 0 24 -5 31 -25 33 -78 9
-85 19 -45 66 14 16 25 32 25 36 0 4 14 13 31 21 30 12 33 11 55 -16 l23 -29
30 33 c22 24 29 41 25 56 -3 13 -1 26 5 29 6 4 11 15 11 26 0 10 7 21 16 24
13 5 15 14 9 44 -9 50 -18 57 -55 44 -18 -7 -28 -7 -25 -2 10 16 -24 23 -41 9
-13 -11 -14 -9 -10 14 3 15 7 36 11 46 3 11 1 22 -5 26 -5 3 -10 20 -10 36 0
20 4 28 11 23 6 -4 33 -8 60 -9 47 -2 54 2 50 32 -1 6 3 14 9 18 15 9 12 45
-5 51 -22 9 -44 59 -34 77 12 20 2 45 -22 52 -10 4 -19 11 -19 16 0 15 -30 10
-36 -6 -5 -13 -8 -12 -22 1 -14 15 -17 14 -31 -5 -13 -17 -19 -19 -29 -9 -6 6
-12 21 -12 31 0 11 -12 28 -26 40 -25 19 -25 21 -9 33 10 7 37 16 61 20 44 6
54 20 32 42 -7 7 -9 12 -5 12 4 0 3 9 -3 20 -6 11 -20 20 -30 20 -11 0 -20 7
-20 15 0 8 -7 15 -15 15 -8 0 -15 7 -15 15 0 9 -6 12 -15 9 -11 -5 -15 1 -15
20 0 28 -10 35 -55 39 -23 2 -30 -3 -39 -28 -8 -22 -16 -30 -30 -27 -16 3 -18
0 -12 -25 6 -24 6 -26 -6 -11 -7 9 -37 24 -65 33 -60 20 -66 36 -23 62 29 17
41 43 19 43 -5 0 -7 5 -3 11 3 6 1 21 -6 34 -14 25 -46 39 -56 23 -3 -5 -20
-6 -36 -2 -29 6 -30 5 -23 -17 4 -13 10 -44 12 -68 l5 -44 -32 7 c-18 3 -43 6
-55 6 -18 0 -23 6 -23 28 0 15 7 35 15 44 20 22 10 56 -11 38 -12 -9 -17 -7
-24 7 -12 22 -44 26 -68 9z m546 -220 c0 -17 -14 -34 -26 -30 -48 14 -50 17
-24 24 30 9 50 12 50 6z m-1150 -323 c0 -5 -4 -14 -9 -22 -8 -13 -12 -13 -27
-1 -15 14 -15 15 7 21 13 4 25 7 27 8 1 1 2 -2 2 -6z m1265 -33 c-3 -5 -12
-10 -18 -10 -7 0 -6 4 3 10 19 12 23 12 15 0z m54 -354 c9 -11 6 -15 -14 -18
-28 -6 -27 -6 -19 16 8 20 18 20 33 2z m-325 -378 c-8 -13 -26 -9 -18 5 4 6 3
8 -1 4 -15 -13 -13 -34 2 -33 9 0 18 -6 21 -14 4 -12 3 -13 -10 -3 -8 7 -18
10 -22 6 -10 -10 -36 -12 -36 -3 0 4 7 11 16 14 8 3 13 10 10 15 -4 5 1 17 10
26 13 13 19 14 25 4 4 -7 5 -17 3 -21z m-654 0 c0 -5 6 -6 13 -2 9 5 9 4 0 -6
-10 -11 -15 -11 -30 0 -14 11 -15 11 -6 1 9 -10 9 -16 0 -26 -9 -10 -14 -9
-23 3 -6 8 -16 12 -23 8 -9 -6 -9 -11 0 -22 9 -11 8 -15 -5 -20 -11 -4 -15
-13 -11 -28 5 -19 5 -19 -5 -3 -8 13 -9 22 -1 31 6 7 8 16 4 19 -3 4 -1 13 5
20 7 8 8 17 4 22 -4 4 3 3 15 -4 25 -13 33 -14 32 -3 -3 14 1 19 16 19 8 0 15
-4 15 -9z m-185 -15 c-1 -10 2 -23 7 -30 6 -7 5 -19 -2 -32 -7 -14 -7 -21 0
-21 5 0 10 6 10 14 0 8 5 18 12 22 7 5 9 2 5 -9 -3 -8 1 -21 9 -27 17 -15 19
-34 2 -23 -15 9 -33 13 -71 17 -27 3 -73 36 -50 36 6 0 16 -7 23 -15 7 -8 17
-15 22 -15 6 0 0 9 -13 20 -13 10 -19 19 -13 20 5 0 15 -5 22 -12 7 -7 12 -8
12 -2 0 5 5 2 11 -6 8 -12 9 -10 4 9 -5 17 -4 22 5 16 9 -5 11 -4 6 4 -4 6
-12 9 -17 5 -13 -8 -7 29 6 38 14 10 14 10 10 -9z m-36 -19 c-8 -10 -8 -14 0
-14 6 0 11 -6 11 -12 -1 -7 -10 -2 -20 11 -15 18 -20 19 -20 7 0 -9 -4 -16
-10 -16 -5 0 -10 7 -10 15 0 14 12 19 33 16 4 0 7 4 7 10 0 5 5 7 10 4 8 -5 7
-11 -1 -21z m284 11 c8 -8 18 -11 22 -7 5 4 5 1 1 -5 -9 -16 -46 -17 -46 -2 0
5 5 7 12 3 7 -5 8 -3 3 5 -5 9 -12 7 -26 -8 -21 -22 -45 -29 -33 -9 4 7 3 8
-4 4 -6 -4 -8 -14 -5 -23 5 -12 3 -14 -8 -8 -12 8 -12 6 0 -8 7 -9 10 -17 5
-17 -12 0 -41 20 -30 20 4 0 1 11 -8 25 -9 14 -12 25 -7 25 5 0 11 -7 15 -15
4 -12 12 -11 42 10 43 29 48 30 67 10z m612 -5 c9 -28 -13 -54 -31 -39 -8 6
-14 16 -14 21 0 6 7 5 15 -2 21 -17 32 -4 17 20 -7 11 -8 20 -3 20 5 0 13 -9
16 -20z m-646 -51 c-15 -15 -17 -24 -9 -38 7 -14 6 -20 -6 -25 -12 -5 -14 -1
-9 17 3 12 3 18 -2 12 -11 -13 -45 -16 -36 -2 3 6 1 7 -5 3 -6 -4 -8 -14 -5
-22 5 -14 3 -15 -15 -5 -22 12 -25 62 -4 69 6 2 9 -5 7 -17 -4 -19 2 -21 58
-12 4 0 7 6 7 12 0 5 -6 7 -12 4 -7 -4 -2 3 11 14 29 26 47 17 20 -10z m132
24 c0 -5 2 -16 4 -25 2 -10 -1 -18 -5 -18 -5 0 -10 -8 -13 -17 -2 -10 -3 1 -3
24 1 24 4 43 9 43 4 0 7 -3 8 -7z m286 -23 c3 0 0 7 -7 15 -10 12 -10 15 3 15
18 0 17 -14 -5 -56 -20 -36 -44 -38 -79 -5 -15 14 -18 20 -7 16 11 -4 20 1 28
15 6 11 15 18 21 15 5 -4 9 -1 9 5 0 7 7 5 16 -4 8 -9 18 -16 21 -16z m-580 6
c-3 -8 0 -17 8 -20 10 -3 12 0 9 12 -3 9 2 6 10 -8 16 -27 22 -55 6 -30 -8 12
-10 12 -10 1 0 -8 -8 -4 -19 10 -16 20 -19 49 -4 49 3 0 3 -6 0 -14z m383 -27
c0 -19 -38 -60 -45 -49 -4 6 -2 17 4 24 6 7 7 17 3 22 -4 4 1 2 11 -5 15 -12
17 -12 11 3 -3 9 -1 16 5 16 6 0 11 -5 11 -11z m474 -4 c2 -6 -2 -12 -10 -12
-7 0 -15 6 -18 12 -2 6 2 12 10 12 7 0 15 -6 18 -12z m-94 -15 c0 -5 -2 -10
-4 -10 -3 0 -8 5 -11 10 -3 6 -1 10 4 10 6 0 11 -4 11 -10z m-640 -20 c0 -5
-4 -10 -10 -10 -5 0 -10 5 -10 10 0 6 5 10 10 10 6 0 10 -4 10 -10z m400 -20
c0 -5 -5 -10 -11 -10 -5 0 -7 5 -4 10 3 6 8 10 11 10 2 0 4 -4 4 -10z"/>
<path d="M1376 633 c4 -16 1 -22 -8 -20 -7 2 -10 2 -5 0 4 -3 4 -10 0 -16 -4
-8 -1 -7 9 1 13 10 17 10 22 0 3 -7 3 -2 0 11 -4 15 -2 21 4 17 6 -3 14 -1 18
5 4 8 3 9 -4 5 -7 -4 -12 -1 -12 6 0 10 -2 10 -9 -1 -7 -11 -10 -11 -15 0 -3
8 -3 4 0 -8z"/>
<path d="M635 710 c-2 -3 5 -6 15 -7 11 -1 22 2 24 5 3 4 -4 8 -15 8 -11 0
-22 -3 -24 -6z"/>
<path d="M630 676 c7 -7 13 -7 20 0 6 6 3 10 -10 10 -13 0 -16 -4 -10 -10z"/>
<path d="M590 676 c0 -2 7 -7 16 -10 8 -3 12 -2 9 4 -6 10 -25 14 -25 6z"/>
<path d="M611 640 c-10 -5 -9 -9 3 -13 8 -3 18 -2 21 4 4 5 12 6 18 3 7 -4 8
-3 4 1 -10 12 -32 14 -46 5z"/>
<path d="M1765 639 c-3 -4 2 -6 10 -5 21 3 28 13 10 13 -9 0 -18 -4 -20 -8z"/>
<path d="M1810 643 c0 -17 14 -23 29 -14 9 6 10 11 2 15 -6 4 -11 1 -11 -6 0
-9 -3 -9 -10 2 -6 9 -10 10 -10 3z"/>
<path d="M1750 608 c0 -4 3 -8 8 -9 4 0 14 -2 23 -4 9 -1 16 3 16 9 0 7 -11
12 -24 12 -12 0 -23 -4 -23 -8z"/>
<path d="M660 600 c0 -5 5 -10 11 -10 5 0 7 5 4 10 -3 6 -8 10 -11 10 -2 0 -4
-4 -4 -10z"/>
<path d="M806 561 c-3 -5 1 -11 9 -14 9 -4 12 -1 8 9 -6 16 -10 17 -17 5z"/>
<path d="M1696 562 c-3 -5 1 -9 9 -9 8 0 12 4 9 9 -3 4 -7 8 -9 8 -2 0 -6 -4
-9 -8z"/>
<path d="M1404 540 c0 -13 4 -16 10 -10 7 7 7 13 0 20 -6 6 -10 3 -10 -10z"/>
<path d="M1206 518 c3 -5 10 -6 15 -3 13 9 11 12 -6 12 -8 0 -12 -4 -9 -9z"/>
</g>
</svg>
